<?xml version="1.0" encoding="UTF-8"?>
<svg width="19px" height="19px" viewBox="0 0 19 19" version="1.1" xmlns="http://www.w3.org/2000/svg" xmlns:xlink="http://www.w3.org/1999/xlink">
    <!-- Generator: Sketch 48.2 (47327) - http://www.bohemiancoding.com/sketch -->
    <title>Artboard 2</title>
    <desc>Created with Sketch.</desc>
    <defs></defs>
    <g id="Page-1" stroke="none" stroke-width="1" fill="none" fill-rule="evenodd">
        <g id="Artboard-2" fill="#F37D7D">
            <g id="sailboat" transform="translate(9.500000, 9.500000) scale(-1, 1) translate(-9.500000, -9.500000) ">
                <rect id="Rectangle-path" x="7" y="0" width="1" height="17"></rect>
                <path d="M0,4 C1.4,5.21621622 5.83333333,10.5675676 7,13 L0,13 C0.466666667,11.2972973 0.7,6.67567568 0,4 Z" id="Shape" transform="translate(3.500000, 8.500000) scale(-1, 1) translate(-3.500000, -8.500000) "></path>
                <path d="M18.7391304,0 C14.826087,2.79661017 8.82608696,10.1694915 7,15 L19,15 C17.173913,11.9491525 17.9565217,2.79661017 18.7391304,0 Z" id="Shape" transform="translate(13.000000, 7.500000) scale(-1, 1) translate(-13.000000, -7.500000) "></path>
                <path d="M0,16 L19,16 L18.8935104,17.4784611 C16.3170409,19.122626 8.25,19.3025758 3.5,18.6420606 C2,18.2017172 0.507398487,17.1916245 0,16 Z" id="Shape"></path>
            </g>
        </g>
    </g>
</svg>